<?xml version="1.0" encoding="UTF-8" standalone="no"?>
<!-- Generator: Adobe Illustrator 19.0.0, SVG Export Plug-In . SVG Version: 6.00 Build 0)  -->

<svg
   xmlns:dc="http://purl.org/dc/elements/1.1/"
   xmlns:cc="http://creativecommons.org/ns#"
   xmlns:rdf="http://www.w3.org/1999/02/22-rdf-syntax-ns#"
   xmlns:svg="http://www.w3.org/2000/svg"
   xmlns="http://www.w3.org/2000/svg"
   xmlns:sodipodi="http://sodipodi.sourceforge.net/DTD/sodipodi-0.dtd"
   xmlns:inkscape="http://www.inkscape.org/namespaces/inkscape"
   version="1.1"
   id="Layer_1"
   x="0px"
   y="0px"
   viewBox="0 0 137 512.00001"
   xml:space="preserve"
   inkscape:version="0.91 r13725"
   sodipodi:docname="Arrow.svg"
   width="137"
   height="512"><metadata
     id="metadata43"><rdf:RDF><cc:Work
         rdf:about=""><dc:format>image/svg+xml</dc:format><dc:type
           rdf:resource="http://purl.org/dc/dcmitype/StillImage" /><dc:title></dc:title></cc:Work></rdf:RDF></metadata><defs
     id="defs41" /><sodipodi:namedview
     pagecolor="#ffffff"
     bordercolor="#666666"
     borderopacity="1"
     objecttolerance="10"
     gridtolerance="10"
     guidetolerance="10"
     inkscape:pageopacity="0"
     inkscape:pageshadow="2"
     inkscape:window-width="1920"
     inkscape:window-height="1004"
     id="namedview39"
     showgrid="false"
     inkscape:zoom="0.46093481"
     inkscape:cx="256.0015"
     inkscape:cy="82.44116"
     inkscape:window-x="0"
     inkscape:window-y="24"
     inkscape:window-maximized="1"
     inkscape:current-layer="Layer_1" /><g
     id="g3"
     transform="translate(-186,-0.00299072)"><g
       id="g5"><path
         d="m 322.528,387.207 -57.984,-74.551 0,-211.039 46.276,33.057 c 1.486,1.067 3.228,1.588 4.961,1.588 1.981,0 3.954,-0.692 5.542,-2.049 2.989,-2.545 3.851,-6.798 2.092,-10.316 L 263.639,4.342 c -2.895,-5.79 -12.382,-5.79 -15.277,0 l -59.777,119.554 c -1.759,3.51 -0.888,7.763 2.092,10.316 2.98,2.545 7.31,2.733 10.504,0.461 l 46.285,-33.057 0,211.048 -57.984,74.542 c -1.161,1.494 -1.793,3.339 -1.793,5.243 l 0,111.015 c 0,3.646 2.314,6.891 5.764,8.078 3.433,1.178 7.276,0.043 9.513,-2.835 l 53.039,-68.197 53.031,68.189 c 1.648,2.126 4.159,3.296 6.746,3.296 0.922,0 1.862,-0.154 2.775,-0.461 3.45,-1.178 5.764,-4.424 5.764,-8.07 l 0,-111.014 c 0,-1.904 -0.631,-3.749 -1.793,-5.243 z m -75.063,36.464 -42.698,54.901 0,-83.193 42.698,-54.901 0,83.193 z m 8.54,-347.186 c -1.742,0 -3.476,0.529 -4.961,1.588 l -31.801,22.715 36.763,-73.534 36.763,73.526 -31.801,-22.715 c -1.488,-1.051 -3.221,-1.58 -4.963,-1.58 z m 51.237,402.087 -42.698,-54.901 0,-83.193 42.698,54.901 0,83.193 z"
         id="path7"
         inkscape:connector-curvature="0" /></g></g><g
     id="g9"
     transform="translate(0,-0.00299072)" /><g
     id="g11"
     transform="translate(0,-0.00299072)" /><g
     id="g13"
     transform="translate(0,-0.00299072)" /><g
     id="g15"
     transform="translate(0,-0.00299072)" /><g
     id="g17"
     transform="translate(0,-0.00299072)" /><g
     id="g19"
     transform="translate(0,-0.00299072)" /><g
     id="g21"
     transform="translate(0,-0.00299072)" /><g
     id="g23"
     transform="translate(0,-0.00299072)" /><g
     id="g25"
     transform="translate(0,-0.00299072)" /><g
     id="g27"
     transform="translate(0,-0.00299072)" /><g
     id="g29"
     transform="translate(0,-0.00299072)" /><g
     id="g31"
     transform="translate(0,-0.00299072)" /><g
     id="g33"
     transform="translate(0,-0.00299072)" /><g
     id="g35"
     transform="translate(0,-0.00299072)" /><g
     id="g37"
     transform="translate(0,-0.00299072)" /></svg>